<?xml version="1.0" standalone="no"?>
<!DOCTYPE svg PUBLIC "-//W3C//DTD SVG 20010904//EN"
 "http://www.w3.org/TR/2001/REC-SVG-20010904/DTD/svg10.dtd">
<svg version="1.0" xmlns="http://www.w3.org/2000/svg"
 width="400.000000pt" height="400.000000pt" viewBox="0 0 400.000000 400.000000"
 preserveAspectRatio="xMidYMid meet">
<metadata>
Created by potrace 1.11, written by Peter Selinger 2001-2013
</metadata>
<g transform="translate(0.000000,400.000000) scale(0.100000,-0.100000)"
fill="#000000" stroke="none">
<path d="M0 2000 l0 -2000 2000 0 2000 0 0 2000 0 2000 -2000 0 -2000 0 0
-2000z m2254 1584 c259 -45 499 -148 706 -301 105 -78 263 -241 342 -353 224
-315 332 -731 288 -1100 -25 -208 -78 -379 -176 -570 -363 -704 -1192 -1033
-1947 -771 -336 116 -648 368 -837 676 -182 295 -269 686 -226 1011 37 278
119 503 264 719 265 396 689 650 1177 705 98 11 303 3 409 -16z"/>
<path d="M1885 3584 c-277 -22 -585 -133 -810 -292 -101 -72 -276 -245 -347
-342 -363 -496 -416 -1118 -143 -1665 214 -426 614 -732 1098 -837 136 -30
461 -33 603 -6 206 39 416 126 601 250 130 88 309 262 400 391 125 178 221
403 265 620 33 161 33 433 0 595 -66 327 -205 586 -441 823 -236 236 -511 382
-826 438 -111 19 -308 32 -400 25z m430 -53 c478 -111 848 -393 1065 -812 144
-278 201 -578 166 -879 -30 -271 -107 -483 -253 -705 -86 -129 -196 -251 -316
-346 -618 -495 -1490 -459 -2055 85 -241 232 -393 508 -459 833 -26 126 -25
472 0 593 47 218 143 440 264 610 87 121 243 277 363 362 173 123 402 222 605
262 121 23 136 24 340 21 148 -3 210 -8 280 -24z"/>
<path d="M1880 3503 c-283 -29 -545 -125 -763 -280 -108 -77 -267 -237 -346
-348 -108 -153 -202 -365 -245 -555 -41 -178 -42 -458 -1 -634 123 -531 488
-939 994 -1111 171 -58 251 -70 481 -70 163 0 223 4 290 19 539 118 961 489
1130 995 60 177 73 267 74 476 0 210 -12 295 -66 465 -145 454 -505 819 -954
968 -190 63 -422 93 -594 75z m217 -465 c20 -18 27 -20 42 -11 16 10 34 2 117
-53 183 -123 289 -165 629 -251 148 -38 195 -46 263 -45 62 1 82 -2 79 -11 -2
-6 -19 -13 -38 -15 -19 -1 -79 -9 -134 -17 -148 -22 -410 -61 -575 -85 -80
-12 -172 -27 -205 -33 l-60 -12 2 -45 c2 -25 7 -99 12 -165 5 -66 7 -124 4
-128 -14 -23 -23 21 -34 171 -14 178 -9 168 -81 156 l-38 -7 0 -163 c0 -89 -4
-165 -9 -168 -11 -7 -21 102 -21 227 0 53 -3 97 -7 97 -59 -2 -756 -125 -930
-165 l-73 -17 0 -69 c0 -38 -4 -69 -9 -69 -13 0 -25 82 -16 109 5 17 2 21 -18
21 -22 0 -25 -5 -31 -60 -9 -80 -26 -87 -26 -12 l0 60 -72 -19 c-39 -11 -80
-19 -90 -19 -33 0 -9 19 38 31 55 14 70 34 119 162 l37 97 37 -6 c20 -4 51
-20 70 -37 50 -43 97 -60 166 -60 51 -1 74 6 147 41 164 79 402 281 590 500
44 50 82 92 86 92 3 0 16 -10 29 -22z m-477 -1028 c0 -5 -18 -10 -40 -10 -39
0 -40 -1 -40 -35 0 -34 1 -35 43 -37 l42 -1 -42 -4 c-43 -4 -43 -4 -43 -44 0
-21 -4 -39 -10 -39 -11 0 -14 162 -3 173 10 11 93 8 93 -3z m104 0 c20 -7 26
-17 26 -39 0 -15 -7 -34 -15 -41 -14 -11 -13 -17 5 -48 30 -49 17 -52 -14 -3
-36 56 -64 56 -69 -1 -2 -24 -4 -1 -5 50 -2 91 -2 92 22 92 14 0 36 -4 50 -10z
m179 -10 c69 -55 21 -174 -63 -155 -68 15 -80 132 -16 163 32 16 51 14 79 -8z
m347 10 c0 -5 -13 -10 -30 -10 l-30 0 -2 -82 -2 -83 -3 83 c-4 80 -5 82 -28
82 -14 0 -25 5 -25 10 0 6 27 10 60 10 33 0 60 -4 60 -10z m54 -83 c-9 -48
-20 -84 -25 -81 -5 3 -7 9 -5 13 3 4 10 38 16 76 6 38 13 72 16 77 14 22 13
-4 -2 -85z m147 -47 c4 0 10 26 14 58 6 54 25 110 24 72 0 -28 -26 -160 -32
-166 -3 -3 -23 29 -45 71 l-39 78 -13 -77 c-7 -42 -17 -76 -22 -76 -5 0 -7 8
-4 18 3 9 10 46 16 82 7 36 14 69 18 74 3 5 21 -23 41 -62 19 -40 38 -72 42
-72z m-415 60 c26 -38 48 -70 48 -70 1 0 0 32 -2 70 -3 47 -1 70 7 70 7 0 11
-29 11 -85 0 -47 -3 -85 -7 -85 -5 0 -29 33 -55 73 l-48 72 0 -72 c0 -42 -4
-73 -10 -73 -6 0 -10 35 -10 85 0 50 4 85 10 85 5 0 31 -31 56 -70z m-596 0
c0 -6 -123 -10 -350 -10 -227 0 -350 4 -350 10 0 6 123 10 350 10 227 0 350
-4 350 -10z m1820 0 c0 -6 -125 -10 -355 -10 -230 0 -355 4 -355 10 0 6 125
10 355 10 230 0 355 -4 355 -10z m-1947 -232 c58 -30 77 -155 34 -219 -45 -68
-152 -72 -198 -8 -43 60 -37 159 11 208 41 41 98 48 153 19z m1244 -4 c21 -21
24 -32 20 -61 -6 -34 -19 -54 -93 -140 l-37 -43 72 0 c41 0 71 -4 71 -10 0 -6
-37 -10 -90 -10 -49 0 -90 3 -90 6 0 3 29 37 64 76 77 82 96 126 71 164 -14
22 -23 25 -53 22 -21 -3 -45 -8 -54 -12 -27 -12 -22 9 5 22 40 19 86 14 114
-14z m220 11 c43 -30 58 -161 25 -225 -34 -70 -114 -73 -146 -5 -32 68 -14
208 31 234 26 15 65 13 90 -4z m195 -134 c-2 -90 -7 -141 -14 -141 -6 0 -9 44
-7 130 2 72 2 130 0 130 -3 0 -15 -9 -27 -21 -12 -12 -28 -19 -35 -17 -7 2 7
18 31 36 24 17 46 30 49 28 3 -2 5 -67 3 -145z m278 139 c0 -5 -18 -10 -39
-10 -32 0 -44 -6 -65 -31 -14 -17 -26 -39 -26 -49 0 -10 -3 -27 -7 -37 -6 -17
-5 -16 16 2 33 29 97 27 122 -4 27 -33 25 -93 -5 -127 -28 -34 -84 -38 -116
-9 -62 56 -40 235 33 265 30 12 87 12 87 0z m-2360 -10 c0 -6 -28 -10 -65 -10
l-65 0 0 -55 0 -55 59 0 c33 0 63 -4 66 -10 4 -6 -18 -10 -59 -10 l-66 0 0
-65 c0 -37 -4 -65 -10 -65 -6 0 -10 53 -10 140 l0 140 75 0 c43 0 75 -4 75
-10z m70 -120 l0 -130 65 0 c37 0 65 -4 65 -10 0 -6 -32 -10 -75 -10 l-75 0 0
140 c0 87 4 140 10 140 6 0 10 -50 10 -130z m603 119 c30 -16 37 -28 37 -67 0
-23 -8 -40 -26 -57 l-26 -24 36 -60 c20 -35 30 -61 23 -61 -7 0 -28 27 -46 60
-32 54 -38 60 -68 60 l-33 0 0 -60 c0 -33 -4 -60 -10 -60 -6 0 -10 53 -10 140
l0 140 51 0 c28 0 60 -5 72 -11z m127 -129 c0 -87 -4 -140 -10 -140 -6 0 -10
53 -10 140 0 87 4 140 10 140 6 0 10 -53 10 -140z m216 117 c19 -17 27 -33 27
-56 0 -47 -32 -74 -96 -81 l-52 -5 -3 -57 c-2 -32 -7 -58 -12 -58 -6 0 -10 58
-10 140 l0 140 59 0 c48 0 65 -5 87 -23z m229 -112 c26 -66 49 -126 53 -134 3
-8 0 -12 -8 -9 -7 2 -21 24 -30 48 l-18 45 -59 3 -59 3 -18 -51 c-10 -27 -22
-50 -27 -50 -5 0 -9 2 -9 5 0 6 100 257 107 268 9 15 21 -6 68 -128z m190 -66
c0 -7 -8 -15 -17 -17 -18 -3 -25 18 -11 32 10 10 28 1 28 -15z m307 -226
c-347 -2 -917 -2 -1265 0 -347 1 -63 2 633 2 696 0 980 -1 632 -2z"/>
<path d="M1940 2894 c-135 -149 -284 -281 -412 -366 -117 -79 -113 -88 9 -22
118 64 265 177 400 308 114 111 115 111 111 153 l-3 43 -105 -116z"/>
<path d="M2073 2979 c-2 -17 1 -18 13 -9 17 15 18 30 1 30 -7 0 -13 -9 -14
-21z"/>
<path d="M2170 2981 c0 -15 188 -137 273 -176 105 -49 407 -127 407 -105 0 4
-28 13 -62 20 -188 36 -382 115 -529 213 -87 59 -89 60 -89 48z"/>
<path d="M2097 2952 c-15 -16 -17 -47 -17 -220 l0 -202 48 7 c26 3 48 7 50 8
1 1 -4 94 -13 206 -14 190 -20 218 -46 219 -3 0 -13 -8 -22 -18z"/>
<path d="M2180 2898 c1 -45 28 -339 31 -342 2 -2 65 5 139 15 74 10 241 32
370 50 129 17 236 32 237 33 2 1 -55 10 -125 19 -241 32 -407 89 -567 196 -41
28 -78 51 -80 51 -3 0 -5 -10 -5 -22z"/>
<path d="M1920 2774 c-152 -141 -267 -228 -381 -289 -158 -83 -325 -109 -441
-68 l-58 20 0 -49 c0 -56 4 -58 110 -32 141 34 496 103 692 135 l208 34 0 183
c0 100 -1 182 -2 182 -2 0 -59 -52 -128 -116z"/>
<path d="M991 2389 c-7 -23 -15 -48 -18 -56 -4 -11 0 -14 17 -11 21 3 24 9 25
56 2 62 -7 67 -24 11z"/>
<path d="M927 2362 c-32 -76 -32 -76 -7 -62 10 6 24 29 30 51 19 70 6 77 -23
11z"/>
<path d="M1660 1965 c0 -32 3 -35 29 -35 35 0 55 22 46 50 -5 15 -15 20 -41
20 -32 0 -34 -2 -34 -35z"/>
<path d="M1816 1984 c-18 -18 -21 -76 -6 -105 13 -24 72 -26 94 -3 22 22 21
87 -2 107 -23 21 -66 22 -86 1z"/>
<path d="M1203 1700 c-58 -24 -80 -149 -37 -207 45 -60 138 -53 169 14 25 52
16 136 -16 169 -28 27 -82 39 -116 24z"/>
<path d="M2684 1689 c-25 -28 -32 -141 -11 -192 17 -40 52 -56 86 -38 43 23
53 170 16 227 -20 30 -65 32 -91 3z"/>
<path d="M3134 1575 c-30 -30 -25 -68 13 -102 48 -44 103 -14 103 55 0 70 -66
97 -116 47z"/>
<path d="M1460 1640 l0 -60 38 0 c50 0 82 23 82 60 0 41 -24 60 -76 60 l-44 0
0 -60z"/>
<path d="M1780 1640 l0 -60 49 0 c57 0 81 18 81 60 0 42 -24 60 -81 60 l-49 0
0 -60z"/>
<path d="M2052 1630 c-12 -29 -22 -57 -22 -61 0 -5 21 -9 46 -9 51 0 51 -1 15
84 l-17 39 -22 -53z"/>
</g>
</svg>
