<?xml version="1.0" encoding="utf-8"?>
<!-- Generator: Adobe Illustrator 19.0.0, SVG Export Plug-In . SVG Version: 6.00 Build 0)  -->
<svg version="1.1" id="Layer_x5F_1_x5F_1" xmlns="http://www.w3.org/2000/svg" xmlns:xlink="http://www.w3.org/1999/xlink" x="0px"
	 y="0px" viewBox="0 0 631 636" style="enable-background:new 0 0 631 636;" xml:space="preserve">
<style type="text/css">
	.st0{fill-rule:evenodd;clip-rule:evenodd;fill:#FFFFFF;}
</style>
<g>
	<g>
		<path class="st0" d="M111.1,263.7c11.8-2.8,10.7-16.6,11.8-26C118.4,246.1,114.6,254.9,111.1,263.7z M124.7,258.8
			c2.8-0.4,5.6-0.7,8.4-0.9c-0.1-7.5,0-15-0.2-22.4C128.9,242.7,126.1,250.6,124.7,258.8z M270.8,200.9
			c-26.6,20.8-56.6,40.1-91.1,43c-14.8,2.3-29.5-1.9-42.8-8.1c0.2,6.6,0.2,13.2-0.1,19.8c7.6-0.4,14.9-2.2,22.2-4.2
			c42.4-9.9,85.2-17.8,128.1-24.9c12.9-2.1,25.7-4.8,38.7-5.8c1-23.2,0.5-46.5-0.1-69.7C307.6,167.7,290.5,185.8,270.8,200.9z
			 M349.3,145.4c2,23.3,3.8,46.6,5.5,70c47.6-6.4,95.3-13,142.9-19.3c-32.2-3.5-64.9-7.6-95.2-19.7
			C383.4,168.7,366.4,156.8,349.3,145.4z M330.6,147.8c-0.2,23.8,0.5,47.6,0,71.4c6.3-0.8,12.7-1.5,19-2.4
			c-0.8-25.4-3.8-50.8-5.3-76.2c-2.2-1.3-4.3-2.7-6.5-4C335.2,140.1,330.3,142.9,330.6,147.8z M347.5,133.8
			c2.9,6.3,9.3,9.4,14.7,13.3c20.4,14,42.5,26.1,66.6,32.1c16.9,3.8,33.6,9.4,51,9.5c-25.5-7.5-52-11.8-76.4-22.7
			c-12.9-6-25.4-12.8-37.3-20.6C359.8,141.5,354.2,136.8,347.5,133.8z M330.3,129.8c-0.1,3.3,0,6.7,0.1,10.1
			c1.8-1.9,3.6-3.9,5.3-5.9C333.9,132.7,332,131.3,330.3,129.8z M249,205.1c-12.8,11-27.3,19.5-41.5,28.4c12.3-3,23.1-9.7,33.9-16
			c30.2-18.9,56.6-43.2,81.1-68.8c5.7-4.9,2.8-13.1,3.1-19.5C301.5,155.9,277.2,182.6,249,205.1z M320,129.9
			c2.7-3.4,5.9-6.3,9.1-9.3c3.2,3.2,7,5.7,10.3,8.8c2.1-1.7,4.2-3.5,6.4-5.2c23.2,17,47.6,33.2,75.1,42.3
			c31.1,10.2,62.9,17.9,94.8,24.9c10.2,2.6,20.4-0.6,30.7-0.7l-2.2,5.3c-15.7,0.7-31.1,3.9-46.6,5.7c-47.2,7.7-94.7,13.4-141.7,21.7
			c0.7,21.4,4.9,42.7,4.1,64.1c-0.9-0.1-2.8-0.2-3.8-0.3c-2.3-21-3.1-42.2-5.5-63.2c-6.4,0.9-12.8,1.8-19.2,2.5
			c-1.2,19,0.4,38-0.1,57c0.3,2.8-2.2,4.5-3.8,6.4c-1.7-20.5-0.4-41.1-1.3-61.6c-30.4,3.6-60.6,9.6-90.8,14.5
			c-32.7,5.2-65.1,11.8-97.4,19c-0.4,8.4,1.4,17.2-0.8,25.4c-0.9,0.2-2.8,0.6-3.8,0.8c-0.8-8.2-0.3-16.4-0.4-24.6
			c-2.8,0.4-5.6,0.6-8.4,1.1c-0.8,7.4-1,14.9-2.4,22.2c-0.8,0.6-2.5,1.7-3.4,2.3c-0.3-7.7,0.4-15.5,0.3-23.2
			c-11.3,3.4-22.7,6.7-34.5,7.8c4.3-8.3,16-4.8,22-10.9c8.9-13.7,12-30.2,19.5-44.5c1.7,1.1,3.6,2.1,5.5,2.9
			c2.6-0.2,5.9-2.2,7.7,0.9c7.9,9.1,18.9,15.2,30.9,16.6c11.5,1.7,22.8-2.4,33-7.4c25.8-12.8,48.1-31.4,69.3-50.8
			C289.2,164.6,305.2,147.8,320,129.9z M284.6,39.2c-45.2,5.1-89,21.4-126.6,46.9c-49.7,33.6-87.7,83.8-107.4,140.4
			c-11.2,33.1-16.5,68.3-14.7,103.2C38.1,391.5,62.2,452,102.3,499c43.3,51.2,105.5,85.7,171.8,95.6c35.1,4.9,71.3,3.9,105.9-4.5
			c66.1-15.3,125.9-55.8,164.8-111.4c33-46.7,51.1-103.7,50.8-161c0.4-54.8-16.2-109.5-46.7-155.1c-38-57.7-98.3-100.3-165.5-116.7
			C351.2,37.7,317.6,35.7,284.6,39.2z M284.5,28.9c61.8-6.8,125.7,6.9,179,38.9c56.2,33,100.5,85.6,123.5,146.5
			c20.5,53.4,24.4,112.9,11.6,168.6c-14.5,63.4-51.1,121.4-102,161.8c-47.2,37.7-106.5,60.4-166.9,62.9
			c-61.2,3.3-123.1-13.8-174.1-47.7C106.5,527.6,67.7,480,46,425.4C19.7,360.5,18.3,285.9,42,220C61,166.7,96,119.2,141.3,85.3
			C182.8,54.1,232.8,34.2,284.5,28.9z M286.2,24.2c-53.4,5.4-105.4,25.3-148.2,57.9C84.2,122.6,44.8,182,29.1,247.6
			C14,309.4,19.4,376.1,44.9,434.4c25,58.3,69.6,108,124.7,139.3c53.5,30.6,116.7,43.8,178,36.9c63.4-6.6,124.2-34.7,170.4-78.6
			c45.3-42.5,76.6-99.6,87.6-160.7c10.3-54.5,4.4-111.8-16.1-163.3c-24.2-60.9-69.5-113.1-126.3-145.8
			C410.1,31.3,347.2,18,286.2,24.2z M155.7,65.8c46.4-29.7,101-45.4,155.9-46.8c68.6-0.2,137.3,22.7,190.7,66
			c56.6,45.1,95.5,111.6,107.3,183c3.4,23.3,6.2,47,3.4,70.6c-4.2,60.5-27.4,119.7-65.8,166.7c-41.5,51.5-100.8,88.5-165.4,102.9
			c-15,3.5-30.3,5.2-45.5,7.5H295c-21.2-2.8-42.6-5.8-63.2-12C162,583.5,100.5,536.7,62.3,475C31.9,426.4,16.7,368.9,17,311.7
			c1.5-34.3,7.7-68.5,20-100.6C59.6,151.6,101.9,99.8,155.7,65.8z"/>
	</g>
	<g>
		<polygon class="st0" points="85.1,398 108.9,398 108.9,395 85.1,395 85.1,373 110.3,373 110.3,370 81.4,370 81.4,422 85.1,422 		
			"/>
		<polygon class="st0" points="146.4,422 146.4,419 121.9,419 121.9,370 118.3,370 118.3,422 		"/>
		<path class="st0" d="M161.6,378.2c3.4-4.2,8.2-6.2,14.4-6.2c6.2,0,11,2.1,14.4,6.2c3.3,4.1,5,10,5,17.8c0,7.8-1.7,13.7-5,17.9
			c-3.4,4.2-8.2,6.2-14.5,6.2c-6.2,0-11-2.1-14.4-6.3c-3.3-4.2-5-10.1-5-17.8C156.6,388.3,158.3,382.4,161.6,378.2z M193.2,376.2
			c-4.1-4.8-9.9-7.2-17.1-7.2c-7.2,0-13,2.4-17.2,7.2c-4.2,4.8-6.3,11.4-6.3,19.7c0,8.4,2.1,15,6.2,19.8c4.1,4.8,9.9,7.3,17.1,7.3
			c7.3,0,13-2.4,17.2-7.3c4.1-4.8,6.2-11.4,6.2-19.8C199.4,387.6,197.3,381,193.2,376.2z"/>
		<path class="st0" d="M214.9,373h8.5c5.3,0,9.1,0.9,11.5,2.7c2.4,1.8,3.5,4.7,3.5,8.7c0,3.8-1.2,6.7-3.6,8.7
			c-2.4,2-5.8,2.9-10.1,2.9h-9.8V373z M227.8,399l13.3,23h4.4l-14-24c3.7-1,6.5-2.7,8.3-5.1c1.8-2.4,2.7-5.3,2.7-8.7
			c0-4.7-1.5-8.3-4.6-10.6c-3.1-2.3-7.8-3.5-14.2-3.5h-12.3v52h3.6v-23H227.8z"/>
		<rect x="254.2" y="370" class="st0" width="3.6" height="52"/>
		<path class="st0" d="M276.1,373h8.7c5.2,0,9.1,1,11.6,2.9c2.5,1.9,3.8,4.9,3.8,8.9c0,4.3-1.3,7.5-3.9,9.4
			c-2.6,1.9-6.9,2.9-12.8,2.9h-7.2V373z M285.3,370h-12.8v52h3.6v-22h8.1c6.3,0,11.2-1.3,14.6-4c3.4-2.6,5.2-6.4,5.2-11.4
			C304,374.9,297.8,370,285.3,370z"/>
		<path class="st0" d="M328,381.8c0.8-1.8,1.5-3.8,2.1-6c0.8,2.6,1.6,4.5,2.1,6l7.1,18.3h-18.7L328,381.8z M347.9,422h4.1l-20.6-52
			H329l-21,52h4l7.3-19h21.3L347.9,422z"/>
	</g>
	<path class="st0" d="M370,407.5c0-1.9,1.6-3.5,3.5-3.5s3.5,1.6,3.5,3.5s-1.6,3.5-3.5,3.5S370,409.4,370,407.5z"/>
	<g>
		<polygon class="st0" points="229.9,333 244.7,333 244.7,331 229.9,331 229.9,317 245.6,317 245.6,315 227.6,315 227.6,347 
			229.9,347 		"/>
		<path class="st0" d="M252.8,317h5.4c3.3,0,5.8,0.6,7.2,1.7c1.5,1.1,2.2,2.9,2.2,5.3c0,2.3-0.8,4.1-2.3,5.3
			c-1.5,1.2-3.6,1.8-6.4,1.8h-6.2V317z M260.9,333l8.4,14h2.7l-8.8-14.6c2.3-0.6,4.1-1.7,5.2-3.2c1.1-1.5,1.7-3.3,1.7-5.4
			c0-2.9-1-5.1-2.9-6.6s-4.9-2.2-8.9-2.2h-7.7v32h2.2v-14H260.9z"/>
		<path class="st0" d="M281.3,320.6c2-2.4,5-3.6,8.7-3.6s6.7,1.2,8.7,3.6c2,2.4,3,5.8,3,10.3c0,4.5-1,8-3,10.4
			c-2,2.4-4.9,3.6-8.7,3.6c-3.8,0-6.7-1.2-8.7-3.7c-2-2.4-3-5.9-3-10.4C278.2,326.5,279.3,323.1,281.3,320.6z M300.4,319.3
			c-2.5-2.8-6-4.3-10.4-4.3c-4.4,0-7.9,1.4-10.4,4.3c-2.5,2.8-3.8,6.8-3.8,11.7c0,5,1.2,8.9,3.8,11.8c2.5,2.9,6,4.3,10.4,4.3
			c4.4,0,7.9-1.4,10.4-4.3c2.5-2.9,3.8-6.8,3.8-11.7C304.2,326,302.9,322.1,300.4,319.3z"/>
		<path class="st0" d="M334.5,315h-2.2v20.9c0,2.4,0.1,4.9,0.2,7.5h-0.1L313.7,315h-2.2v32h2.2v-20.8c0-1.7-0.1-4.3-0.3-7.7h0.2
			l18.7,28.4h2.3V315z"/>
		<polygon class="st0" points="352.1,317 362.8,317 362.8,315 339.2,315 339.2,317 349.8,317 349.8,347 352.1,347 		"/>
		<polygon class="st0" points="369.8,347 375.5,314.9 373.2,314.9 367.5,347 		"/>
		<path class="st0" d="M407.6,314.9h-2.2l-3.7,21c-0.4,2.4-0.8,4.9-1.1,7.5h-0.1l-14-28.5h-2.2l-5.7,32.1h2.2l3.7-20.8
			c0.3-1.7,0.6-4.3,1.1-7.7h0.2l14,28.5h2.3L407.6,314.9z"/>
	</g>
	<rect x="81" y="328" class="st0" width="132" height="2"/>
	<rect x="419" y="328" class="st0" width="132" height="2"/>
	<rect x="81" y="448" class="st0" width="470" height="2"/>
</g>
<g>
	<path class="st0" d="M425.9,419h-28.1v-0.1l13.4-14.2c4.7-4.9,7.9-9,9.6-12.3c1.8-3.3,2.6-6.8,2.6-10.3c0-4.4-1.3-7.8-3.9-10.3
		c-2.6-2.5-6.2-3.8-10.8-3.8c-5.3,0-10.2,1.8-14.6,5.3l1.9,2.5c4-3.2,8.2-4.8,12.6-4.8c3.3,0,5.9,1,8,3c2.1,2,3.1,4.7,3.1,7.9
		c0,2.2-0.4,4.3-1.1,6.4c-0.8,2-1.9,4.1-3.5,6.4c-1.6,2.2-4.3,5.4-8.2,9.6l-14,15v2.8h32.9V419z"/>
	<path class="st0" d="M442.1,377.2c2-4.1,5.3-6.2,9.8-6.2c4.5,0,7.8,2.1,9.9,6.2c2.1,4.1,3.1,10.2,3.1,18.2c0,8.1-1.1,14.2-3.1,18.4
		c-2.1,4.1-5.4,6.2-9.9,6.2c-4.3,0-7.6-2-9.7-6c-2.1-4-3.2-10.2-3.2-18.6C439,387.4,440,381.4,442.1,377.2z M464.5,375
		c-2.9-4.6-7.1-7-12.6-7c-5.7,0-9.9,2.2-12.6,6.7c-2.8,4.5-4.1,11.4-4.1,20.7c0,9.1,1.4,16,4.3,20.6c2.8,4.6,7,7,12.5,7
		c5.7,0,10-2.2,12.8-6.8s4.2-11.5,4.2-20.8C468.9,386.4,467.5,379.6,464.5,375z"/>
	<path class="st0" d="M497.5,369h-3.1l-14.4,10.8l2.1,2.6c7.1-5.5,10.8-8.5,11.2-8.8c0.4-0.3,0.8-0.7,1.1-1.1
		c-0.3,3.8-0.4,7.4-0.4,10.9V422h3.5V369z"/>
	<path class="st0" d="M530.2,417.8c-2-1.5-3.6-3.5-4.8-6c-1.2-2.5-1.8-5.2-1.8-8c0-1.9,0.6-3.8,1.9-5.7c1.2-1.8,2.9-3.3,5-4.4
		c2.1-1.1,4.4-1.7,6.8-1.7c3.7,0,6.6,1.2,8.8,3.5c2.2,2.3,3.2,5.6,3.2,9.7c0,4.8-1.1,8.4-3.3,10.9c-2.2,2.6-5.2,3.8-9.1,3.8
		C534.5,420,532.2,419.3,530.2,417.8z M524.3,416.8c3.1,4.1,7.3,6.2,12.6,6.2c4.9,0,8.9-1.6,11.8-4.8c2.9-3.2,4.4-7.5,4.4-13
		c0-5-1.4-9-4.2-11.9c-2.8-2.9-6.6-4.3-11.5-4.3c-2.6,0-5.1,0.6-7.4,1.8c-2.3,1.2-4.4,3.1-6.2,5.5h-0.5c0.4-8.2,2.2-14.5,5.5-18.8
		c3.3-4.3,7.9-6.5,13.8-6.5c2.5,0,4.6,0.3,6.3,1v-3.2c-1.9-0.5-3.9-0.8-6.2-0.8c-4.8,0-8.9,1.2-12.3,3.4c-3.4,2.3-6,5.8-7.9,10.5
		c-1.9,4.8-2.8,10.6-2.8,17.5C519.7,406.9,521.2,412.7,524.3,416.8z"/>
</g>
</svg>
